# xmcd
#
# Track frame offsets: 
#        150
#        15335
#        31565
#        48568
#        71116
#        86712
#        104161
#        129099
#        146604
#        166122
#        186706
#        201306
#        224711
#        238963
#        256893
#        269640
#        290384
#        307868
#        331705
#
# Disc length: 4701 seconds
#
# Revision: 2
# Processed by: cddbd v1.5.2PL0 Copyright (c) Steve Scherf et al.
# Submitted via: ExactAudioCopy v1.0b3
#
DISCID=20125b13
DTITLE=Various Artist - MTV: Country
DYEAR=2001
DGENRE=Country
TTITLE0=Lee Ann Womack - A Man With 18 Wheels
TTITLE1=Mark Chesnutt - Trouble
TTITLE2=Rhett Akins - Srivin` My Life Away
TTITLE3=Diamons Rio - Hearts Against The Wind
TTITLE4=Gary Allan - Highway Junkie
TTITLE5=John Anderson - It Ain`t Easy Being Me
TTITLE6=Chris Knight - The Hammer Going Down
TTITLE7=Nitty Gritty Dirt Band - Workin` Man
TTITLE8=David Lee Murphy - We Can`t All Be Angels
TTITLE9=Randy Scruggs with Travis Tritt - Amie
TTITLE10=Randy Travis - My Greatest Fear
TTITLE11=Trisha Yearwood - Bring Me All Your Lovin`
TTITLE12=Patty Loveless - On Down The Line
TTITLE13=Shania Twain - Man! I Feel Like a Woman!
TTITLE14=Steve Earle - Nowherere Road
TTITLE15=Garth Brooks - You Move Me
TTITLE16=Linda Davis - I Wanna Remember This
TTITLE17=Randy Scruggs with Joan Osborne - Passin` Thru
TTITLE18=Jack Ingram - Drivin` All Night Long
EXTD=
EXTT0=
EXTT1=
EXTT2=
EXTT3=
EXTT4=
EXTT5=
EXTT6=
EXTT7=
EXTT8=
EXTT9=
EXTT10=
EXTT11=
EXTT12=
EXTT13=
EXTT14=
EXTT15=
EXTT16=
EXTT17=
EXTT18=
PLAYORDER=
